# xmcd
#
# Track frame offsets:
#	150
#	19954
#	30132
#	41919
#	52964
#	62422
#	76127
#	85724
#	97317
#	110309
#	121661
#	133484
#	144762
#	154675
#	162753
#	175564
#	188754
#	200184
#	208924
#	220975
#	230968
#	241708
#	253682
#	266591
#
# Disc length: 3709 seconds
#
# Revision: 1
# Processed by: cddbd v1.5.2PL0 Copyright (c) Steve Scherf et al.
# Submitted via: audiograbber 1.83.01
#
DISCID=4a0e7b18
DTITLE=Disc 3 - Early Soul 1959 - 1962 - New Orleans Roots of Soul
DYEAR=2016
DGENRE=Blues
TTITLE0=Earl King - Come On (Let the Good Times Roll)
TTITLE1=Snooks Eaglin - Nobody Knows (The Trouble I've Seen)
TTITLE2=Larry Williams - My Baby's Got Soul
TTITLE3=Irma Thomas - Cry On
TTITLE4=Eddie Bo - Warm Daddy
TTITLE5=Snooks Eaglin - C. C. Rider
TTITLE6=Irma Thomas - It's Raining
TTITLE7=Lee Dorsey - People Gonna Talk
TTITLE8=Chris Kenner - Something You Got
TTITLE9=Irma Thomas - I Did My Part
TTITLE10=Roland Stone - Down the Road (Junco Partner)
TTITLE11=Reggie Hall - The Joke
TTITLE12=Benny Spellman - Fortune Teller
TTITLE13=Lee Dorsey - Hoodlum Joe
TTITLE14=Irma Thomas - Ruler of My Heart
TTITLE15=Alvin Robinson - Pain In My Heart
TTITLE16=Eddie Bo - Baby I'm Wise
TTITLE17=Alvin Robinson - Oh Red
TTITLE18=Irma Thomas - Somebody Told You
TTITLE19=Donny White and the Tick Tocks - I'm Gonna Get You Yet
TTITLE20=Irma Thomas - Hittin' on Nothing
TTITLE21=Willie Tee - All For One
TTITLE22=Johnny Adams - A Losing Battle
TTITLE23=Benny Spellman - Talk About Love
EXTD=Produced in France
EXTT0=
EXTT1=
EXTT2=
EXTT3=
EXTT4=
EXTT5=
EXTT6=
EXTT7=
EXTT8=
EXTT9=
EXTT10=
EXTT11=
EXTT12=
EXTT13=
EXTT14=
EXTT15=
EXTT16=
EXTT17=
EXTT18=
EXTT19=
EXTT20=
EXTT21=
EXTT22=
EXTT23=
PLAYORDER=
